<svg width="32" height="32" fill="none" xmlns="http://www.w3.org/2000/svg"><rect width="32" height="32" rx="16" fill="#FF5314"/><path fill-rule="evenodd" clip-rule="evenodd" d="M11.25 11.25v-.12a4.75 4.75 0 119.5 0v.12h1.501c.571 0 1.056.419 1.14.984l.218 1.492a30.57 30.57 0 010 8.863 3.135 3.135 0 01-2.779 2.664l-.629.065a40.68 40.68 0 01-8.402 0l-.629-.065a3.135 3.135 0 01-2.779-2.664 30.566 30.566 0 010-8.863l.219-1.492a1.151 1.151 0 011.139-.984h1.501zm3.94-3.268a3.25 3.25 0 014.06 3.148v.12h-6.5v-.12a3.25 3.25 0 012.44-3.148zm-3.94 4.768V15a.75.75 0 001.5 0v-2.25h6.5V15a.75.75 0 001.5 0v-2.25h1.2l.175 1.194a29.092 29.092 0 010 8.427 1.635 1.635 0 01-1.45 1.39l-.629.065c-2.69.28-5.402.28-8.092 0l-.63-.065a1.635 1.635 0 01-1.449-1.39 29.066 29.066 0 010-8.427l.175-1.194h1.2z" fill="#fff"/></svg>