<svg width="27" height="27" fill="none" xmlns="http://www.w3.org/2000/svg"><path d="M12.375 10.125h2.25V6.75H18V4.5h-3.375V1.125h-2.25V4.5H9v2.25h3.375v3.375zm-4.5 10.125a2.247 2.247 0 00-2.239 2.25 2.247 2.247 0 002.239 2.25 2.257 2.257 0 002.25-2.25 2.257 2.257 0 00-2.25-2.25zm11.25 0a2.247 2.247 0 00-2.239 2.25 2.247 2.247 0 002.239 2.25 2.257 2.257 0 002.25-2.25 2.257 2.257 0 00-2.25-2.25zM8.066 16.594l.034-.135 1.013-1.834h8.38a2.24 2.24 0 001.97-1.159l4.342-7.886-1.957-1.08h-.012L20.6 6.75l-3.105 5.625H9.596l-.146-.304L6.93 6.75 5.861 4.5 4.804 2.25H1.125V4.5h2.25l4.05 8.539-1.519 2.756c-.18.315-.281.686-.281 1.08a2.257 2.257 0 002.25 2.25h13.5v-2.25H8.348a.286.286 0 01-.282-.281z" fill="#222"/></svg>