<svg width="20" height="20" fill="none" xmlns="http://www.w3.org/2000/svg"><path fill-rule="evenodd" clip-rule="evenodd" d="M.153 2.788A2.628 2.628 0 012.781.16h13.664a2.628 2.628 0 012.628 2.628v13.664a2.628 2.628 0 01-2.628 2.627H2.78a2.628 2.628 0 01-2.628-2.627V2.788zM2.781 1.21h9.985v16.817H2.78a1.577 1.577 0 01-1.577-1.577V2.788c0-.871.706-1.577 1.577-1.577zm11.036 16.817V1.211h2.628c.87 0 1.576.706 1.576 1.577V16.45c0 .871-.706 1.577-1.576 1.577h-2.628zM3.307 4.89c0 .29.235.525.525.525h6.306a.525.525 0 100-1.05H3.832a.526.526 0 00-.526.525zm.525 2.627a.526.526 0 010-1.05h6.306a.525.525 0 110 1.05H3.832zm-.526 1.577c0 .29.236.526.526.526h4.204a.526.526 0 100-1.051H3.832a.526.526 0 00-.526.525zm.526 3.679a.526.526 0 010-1.051h6.306a.525.525 0 110 1.051H3.832zm-.526 1.576c0 .29.236.526.526.526h4.204a.526.526 0 100-1.051H3.832a.526.526 0 00-.526.525z" fill="#fff"/></svg>