<svg width="27" height="27" fill="none" xmlns="http://www.w3.org/2000/svg"><path d="M13.5 6.75a4.219 4.219 0 100 8.438 4.219 4.219 0 000-8.438zm0 6.75a2.532 2.532 0 110-5.064 2.532 2.532 0 010 5.064z" fill="#222"/><path d="M13.5 1.688A11.812 11.812 0 1025.313 13.5 11.826 11.826 0 0013.5 1.687zM8.437 22.256v-1.162a2.534 2.534 0 012.532-2.532h5.062a2.534 2.534 0 012.532 2.532v1.162a10.04 10.04 0 01-10.125 0zm11.806-1.225a4.22 4.22 0 00-4.212-4.156H10.97a4.22 4.22 0 00-4.212 4.156 10.125 10.125 0 1113.487 0z" fill="#222"/></svg>