<svg width="31" height="30" fill="none" xmlns="http://www.w3.org/2000/svg"><path fill-rule="evenodd" clip-rule="evenodd" d="M9.591 1.333c1.48-.068 1.95-.083 5.718-.083 3.767 0 4.239.016 5.717.083 1.477.066 2.486.3 3.368.638A6.828 6.828 0 0126.85 3.56a6.71 6.71 0 011.6 2.433c.342.875.576 1.875.645 3.338.068 1.469.083 1.936.083 5.67 0 3.735-.017 4.203-.083 5.669-.067 1.462-.303 2.462-.646 3.337a6.739 6.739 0 01-1.599 2.436 6.806 6.806 0 01-2.456 1.585c-.882.34-1.89.573-3.366.64-1.48.068-1.952.083-5.719.083-3.767 0-4.239-.016-5.718-.082-1.475-.067-2.483-.3-3.366-.64a6.81 6.81 0 01-2.457-1.585 6.735 6.735 0 01-1.6-2.436c-.342-.875-.576-1.875-.644-3.337-.068-1.469-.084-1.936-.084-5.67 0-3.735.017-4.203.084-5.668.066-1.465.302-2.465.644-3.34a6.74 6.74 0 011.601-2.434 6.801 6.801 0 012.455-1.587c.882-.339 1.891-.571 3.366-.639h.001zm11.322 2.474c-1.462-.066-1.9-.08-5.604-.08-3.703 0-4.142.014-5.604.08-1.353.062-2.087.286-2.576.474A4.31 4.31 0 005.534 5.31c-.46.444-.814.984-1.036 1.581-.19.485-.416 1.212-.478 2.554-.067 1.45-.08 1.885-.08 5.556 0 3.671.013 4.106.08 5.556.062 1.341.287 2.069.478 2.554a4.265 4.265 0 001.036 1.581c.448.457.994.808 1.595 1.028.49.188 1.223.412 2.576.473 1.462.067 1.9.08 5.604.08s4.142-.013 5.604-.08c1.353-.06 2.087-.285 2.576-.473a4.31 4.31 0 001.595-1.028 4.27 4.27 0 001.036-1.581c.19-.485.416-1.212.478-2.554.067-1.45.08-1.885.08-5.556 0-3.671-.013-4.106-.08-5.556-.061-1.342-.287-2.069-.478-2.554a4.265 4.265 0 00-1.036-1.581 4.306 4.306 0 00-1.595-1.028c-.489-.188-1.223-.412-2.576-.473zM13.538 19.24c.989.408 2.09.463 3.116.156a4.622 4.622 0 002.508-1.842 4.555 4.555 0 00-.581-5.797 4.634 4.634 0 00-1.713-1.075 4.664 4.664 0 00-3.937.385 4.61 4.61 0 00-1.468 1.386 4.566 4.566 0 00-.581 3.88c.198.649.54 1.246.999 1.749a4.623 4.623 0 001.657 1.158zm-3.27-9.237a7.132 7.132 0 012.313-1.532 7.181 7.181 0 017.769 1.532 7.066 7.066 0 011.545 2.293 7.015 7.015 0 01-1.545 7.702 7.16 7.16 0 01-5.04 2.07 7.16 7.16 0 01-5.042-2.07A7.037 7.037 0 018.181 15c0-1.874.75-3.672 2.088-4.998zm13.75-1.017a1.673 1.673 0 00.53-1.191 1.658 1.658 0 00-.494-1.206 1.686 1.686 0 00-1.217-.49 1.698 1.698 0 00-1.201.524 1.663 1.663 0 00.034 2.33 1.693 1.693 0 002.349.033z" fill="#000"/></svg>